<mxfile host="65bd71144e" scale="1" border="10">
    <diagram id="MOaqTJyQDEPCfKq5nXHp" name="Page-1">
        <mxGraphModel dx="1944" dy="1904" grid="1" gridSize="10" guides="0" tooltips="1" connect="1" arrows="1" fold="1" page="0" pageScale="1" pageWidth="850" pageHeight="1100" background="#1A1A1A" math="0" shadow="0">
            <root>
                <mxCell id="0"/>
                <mxCell id="1" parent="0"/>
                <mxCell id="2" value="&lt;span&gt;&lt;font style=&quot;color: rgb(255, 255, 255);&quot;&gt;Embedding Model&lt;br&gt;(Gemini Embedding / OpenAI Embedding)&lt;/font&gt;&lt;/span&gt;" style="shape=mxgraph.signs.healthcare.brain;html=1;pointerEvents=1;verticalLabelPosition=bottom;verticalAlign=top;align=center;fillColor=#dae8fc;strokeColor=#6c8ebf;fontSize=15;" parent="1" vertex="1">
                    <mxGeometry x="540" y="440" width="50" height="50" as="geometry"/>
                </mxCell>
                <mxCell id="6" value="Primary DB (MySQL)" style="outlineConnect=0;dashed=0;verticalLabelPosition=bottom;verticalAlign=top;align=center;html=1;shape=mxgraph.aws3.mysql_db_instance;fillColor=#2E73B8;gradientColor=none;fontColor=#FFFFFF;fontSize=15;" parent="1" vertex="1">
                    <mxGeometry x="710" y="70" width="60" height="64.5" as="geometry"/>
                </mxCell>
                <mxCell id="7" value="&lt;span&gt;&lt;font style=&quot;color: rgb(255, 255, 255);&quot;&gt;Knowledge Graph&amp;nbsp;(&amp;nbsp;Apache Jena Fuseki&amp;nbsp;)&lt;/font&gt;&lt;/span&gt;" style="image;aspect=fixed;html=1;points=[];align=center;fontSize=15;image=img/lib/azure2/management_governance/Resource_Graph_Explorer.svg;fontColor=#FFFFFF;labelBackgroundColor=none;" parent="1" vertex="1">
                    <mxGeometry x="320" y="-310" width="52.35" height="50" as="geometry"/>
                </mxCell>
                <mxCell id="8" value="Vector Index (ElasticSearch)" style="outlineConnect=0;dashed=0;verticalLabelPosition=bottom;verticalAlign=top;align=center;html=1;shape=mxgraph.aws3.elasticsearch_service;fillColor=#F58534;gradientColor=none;fontColor=#FFFFFF;fontSize=15;" parent="1" vertex="1">
                    <mxGeometry x="710" y="290" width="50" height="50" as="geometry"/>
                </mxCell>
                <mxCell id="14" value="" style="edgeStyle=none;html=1;fontColor=#FFFFFF;strokeColor=#FFFF99;strokeWidth=3;fontSize=15;" parent="1" source="11" target="6" edge="1">
                    <mxGeometry x="0.0109" y="18" relative="1" as="geometry">
                        <mxPoint as="offset"/>
                    </mxGeometry>
                </mxCell>
                <mxCell id="54" value="" style="edgeStyle=none;html=1;fontColor=#FFFFFF;strokeColor=#FFFF99;strokeWidth=3;fontSize=15;" parent="1" source="11" target="52" edge="1">
                    <mxGeometry x="0.2178" y="-43" relative="1" as="geometry">
                        <mxPoint x="590" y="-100" as="targetPoint"/>
                        <mxPoint as="offset"/>
                    </mxGeometry>
                </mxCell>
                <mxCell id="78" style="edgeStyle=none;html=1;entryX=0.413;entryY=0.106;entryDx=0;entryDy=0;entryPerimeter=0;strokeColor=#FFFF99;fontColor=#FFFFFF;strokeWidth=3;fontSize=15;" parent="1" source="11" target="77" edge="1">
                    <mxGeometry relative="1" as="geometry">
                        <mxPoint x="530" y="220" as="targetPoint"/>
                    </mxGeometry>
                </mxCell>
                <mxCell id="11" value="Domain Service" style="aspect=fixed;sketch=0;html=1;dashed=0;whitespace=wrap;verticalLabelPosition=bottom;verticalAlign=top;fillColor=#2875E2;strokeColor=#ffffff;points=[[0.005,0.63,0],[0.1,0.2,0],[0.9,0.2,0],[0.5,0,0],[0.995,0.63,0],[0.72,0.99,0],[0.5,1,0],[0.28,0.99,0]];shape=mxgraph.kubernetes.icon2;prIcon=api;fontColor=#FFFFFF;fontSize=15;" parent="1" vertex="1">
                    <mxGeometry x="320" y="80" width="52.08" height="50" as="geometry"/>
                </mxCell>
                <mxCell id="15" value="Embedding Service" style="aspect=fixed;sketch=0;html=1;dashed=0;whitespace=wrap;verticalLabelPosition=bottom;verticalAlign=top;fillColor=#2875E2;strokeColor=#ffffff;points=[[0.005,0.63,0],[0.1,0.2,0],[0.9,0.2,0],[0.5,0,0],[0.995,0.63,0],[0.72,0.99,0],[0.5,1,0],[0.28,0.99,0]];shape=mxgraph.kubernetes.icon2;prIcon=api;fontColor=#FFFFFF;fontSize=15;" parent="1" vertex="1">
                    <mxGeometry x="540" y="290" width="52.08" height="50" as="geometry"/>
                </mxCell>
                <mxCell id="76" style="edgeStyle=none;html=1;strokeColor=#FFFF99;fontColor=#FFFFFF;strokeWidth=3;fontSize=15;" parent="1" source="29" target="7" edge="1">
                    <mxGeometry relative="1" as="geometry"/>
                </mxCell>
                <mxCell id="29" value="Knowledge Graph Service" style="aspect=fixed;sketch=0;html=1;dashed=0;whitespace=wrap;verticalLabelPosition=bottom;verticalAlign=top;fillColor=#2875E2;strokeColor=#ffffff;points=[[0.005,0.63,0],[0.1,0.2,0],[0.9,0.2,0],[0.5,0,0],[0.995,0.63,0],[0.72,0.99,0],[0.5,1,0],[0.28,0.99,0]];shape=mxgraph.kubernetes.icon2;prIcon=api;fontColor=#FFFFFF;fontSize=15;" parent="1" vertex="1">
                    <mxGeometry x="320" y="-170" width="52.08" height="50" as="geometry"/>
                </mxCell>
                <mxCell id="30" value="" style="edgeStyle=none;html=1;fontColor=#FFFFFF;strokeColor=#FFFF99;strokeWidth=3;fontSize=15;" parent="1" source="11" target="29" edge="1">
                    <mxGeometry x="0.0891" y="1" relative="1" as="geometry">
                        <mxPoint x="345" as="targetPoint"/>
                        <mxPoint y="1" as="offset"/>
                    </mxGeometry>
                </mxCell>
                <mxCell id="43" style="edgeStyle=none;html=1;fontColor=#FFFFFF;exitX=0.684;exitY=0.577;exitDx=0;exitDy=0;exitPerimeter=0;strokeColor=#FFFF99;strokeWidth=3;fontSize=15;" parent="1" source="15" target="8" edge="1">
                    <mxGeometry relative="1" as="geometry">
                        <mxPoint x="770" y="400" as="sourcePoint"/>
                        <mxPoint x="670" y="270" as="targetPoint"/>
                    </mxGeometry>
                </mxCell>
                <mxCell id="48" value="&lt;font style=&quot;color: rgb(255, 255, 255);&quot;&gt;Generation Model (Gemini / ChatGPT)&lt;/font&gt;" style="shape=mxgraph.signs.healthcare.brain;html=1;pointerEvents=1;fillColor=#1ba1e2;strokeColor=#006EAF;verticalLabelPosition=bottom;verticalAlign=top;align=center;fontColor=#FFFFFF;fontSize=15;" parent="1" vertex="1">
                    <mxGeometry x="140" y="450" width="50" height="50" as="geometry"/>
                </mxCell>
                <mxCell id="52" value="Ontology Model Store" style="image;sketch=0;aspect=fixed;html=1;points=[];align=center;fontSize=15;image=img/lib/mscae/Resource_Graph_Explorer.svg;fontColor=#FFFFFF;labelBackgroundColor=none;" parent="1" vertex="1">
                    <mxGeometry x="630" y="-260" width="49" height="50" as="geometry"/>
                </mxCell>
                <mxCell id="62" value="&lt;font style=&quot;color: rgb(255, 255, 255);&quot;&gt;MCP (Model Context Protocol) Servers&lt;/font&gt;" style="points=[];aspect=fixed;html=1;align=center;shadow=0;dashed=0;shape=mxgraph.alibaba_cloud.eip_elastic_ip_address;labelPosition=center;verticalLabelPosition=bottom;verticalAlign=top;fontSize=15;" parent="1" vertex="1">
                    <mxGeometry x="30" y="-120" width="50.97" height="50" as="geometry"/>
                </mxCell>
                <mxCell id="70" style="edgeStyle=none;html=1;strokeColor=#FFFF99;fontColor=#FFFFFF;strokeWidth=3;entryX=0.5;entryY=1;entryDx=0;entryDy=0;exitX=0.514;exitY=0.558;exitDx=0;exitDy=0;exitPerimeter=0;fontSize=15;" parent="1" source="88" target="69" edge="1">
                    <mxGeometry relative="1" as="geometry">
                        <mxPoint x="45.86759259259247" y="-310" as="sourcePoint"/>
                        <mxPoint x="-5" y="-520" as="targetPoint"/>
                    </mxGeometry>
                </mxCell>
                <mxCell id="66" style="edgeStyle=none;html=1;entryX=0.339;entryY=0.305;entryDx=0;entryDy=0;entryPerimeter=0;strokeColor=#FFFF99;fontColor=#FFFFFF;strokeWidth=3;exitX=0.514;exitY=0.745;exitDx=0;exitDy=0;exitPerimeter=0;fontSize=15;" parent="1" source="88" target="62" edge="1">
                    <mxGeometry relative="1" as="geometry">
                        <mxPoint x="45.3160651872397" y="-260" as="sourcePoint"/>
                        <mxPoint x="-4" y="-160" as="targetPoint"/>
                    </mxGeometry>
                </mxCell>
                <mxCell id="68" value="" style="edgeStyle=none;html=1;entryX=0.076;entryY=0.032;entryDx=0;entryDy=0;entryPerimeter=0;strokeColor=#FFFF99;fontColor=#FFFFFF;strokeWidth=3;fontSize=15;" parent="1" source="62" target="11" edge="1">
                    <mxGeometry x="-0.1674" y="29" relative="1" as="geometry">
                        <mxPoint as="offset"/>
                    </mxGeometry>
                </mxCell>
                <mxCell id="69" value="&lt;span&gt;&lt;font style=&quot;color: rgb(255, 255, 255);&quot;&gt;Internet, 3rd Party Knowledge Bases, APIs&lt;/font&gt;&lt;/span&gt;" style="image;aspect=fixed;perimeter=ellipsePerimeter;html=1;align=center;shadow=0;dashed=0;spacingTop=3;image=img/lib/active_directory/internet_cloud.svg;fontColor=#FFFFFF;labelBackgroundColor=none;fontSize=15;" parent="1" vertex="1">
                    <mxGeometry x="10" y="-470" width="79.37" height="50" as="geometry"/>
                </mxCell>
                <mxCell id="73" value="&lt;span&gt;&lt;font style=&quot;color: rgb(255, 255, 255);&quot;&gt;Prompt Store&lt;/font&gt;&lt;/span&gt;" style="html=1;verticalLabelPosition=bottom;align=center;labelBackgroundColor=none;verticalAlign=top;strokeWidth=2;strokeColor=#0080F0;shadow=0;dashed=0;shape=mxgraph.ios7.icons.documents;fontColor=#FFFFFF;fontSize=15;" parent="1" vertex="1">
                    <mxGeometry x="710" y="-160" width="40" height="50" as="geometry"/>
                </mxCell>
                <mxCell id="75" value="User" style="image;aspect=fixed;perimeter=ellipsePerimeter;html=1;align=center;shadow=0;dashed=0;spacingTop=3;image=img/lib/active_directory/user_accounts.svg;fontColor=#FFFFFF;labelBackgroundColor=none;fontSize=15;" parent="1" vertex="1">
                    <mxGeometry x="30" y="80" width="51.55" height="50" as="geometry"/>
                </mxCell>
                <mxCell id="77" value="Queue (Apache Kafka)" style="verticalLabelPosition=bottom;html=1;verticalAlign=top;align=center;strokeColor=none;fillColor=#00BEF2;shape=mxgraph.azure.queue_generic;pointerEvents=1;fontColor=#FFFFFF;fontSize=15;" parent="1" vertex="1">
                    <mxGeometry x="320" y="310" width="70" height="25" as="geometry"/>
                </mxCell>
                <mxCell id="79" style="edgeStyle=none;html=1;entryX=1;entryY=0.51;entryDx=0;entryDy=0;entryPerimeter=0;exitX=0.005;exitY=0.63;exitDx=0;exitDy=0;exitPerimeter=0;strokeColor=#FFFF99;fontColor=#FFFFFF;strokeWidth=3;fontSize=15;" parent="1" source="15" target="77" edge="1">
                    <mxGeometry relative="1" as="geometry"/>
                </mxCell>
                <mxCell id="80" style="edgeStyle=none;html=1;entryX=0.5;entryY=0.01;entryDx=0;entryDy=0;entryPerimeter=0;strokeColor=#FFFF99;fontColor=#FFFFFF;strokeWidth=3;fontSize=15;" parent="1" source="15" target="2" edge="1">
                    <mxGeometry relative="1" as="geometry">
                        <mxPoint x="655" y="600" as="targetPoint"/>
                    </mxGeometry>
                </mxCell>
                <mxCell id="81" style="edgeStyle=none;html=1;entryX=-0.045;entryY=0.511;entryDx=0;entryDy=0;entryPerimeter=0;strokeColor=#FFFF99;fontColor=#FFFFFF;strokeWidth=3;fontSize=15;" parent="1" source="75" target="11" edge="1">
                    <mxGeometry relative="1" as="geometry"/>
                </mxCell>
                <mxCell id="82" style="edgeStyle=none;html=1;strokeColor=#FFFF99;fontColor=#FFFFFF;strokeWidth=3;fontSize=15;" parent="1" source="11" target="73" edge="1">
                    <mxGeometry relative="1" as="geometry">
                        <mxPoint x="850" y="-30" as="targetPoint"/>
                    </mxGeometry>
                </mxCell>
                <mxCell id="85" style="edgeStyle=none;html=1;entryX=0.5;entryY=0.01;entryDx=0;entryDy=0;entryPerimeter=0;strokeColor=#FFFF99;fontColor=#FFFFFF;strokeWidth=3;fontSize=15;" parent="1" source="11" target="48" edge="1">
                    <mxGeometry relative="1" as="geometry"/>
                </mxCell>
                <mxCell id="88" value="&lt;font style=&quot;color: rgb(255, 255, 255);&quot;&gt;Research &amp;amp; Knowledge Refresh Agents&lt;/font&gt;" style="verticalLabelPosition=bottom;aspect=fixed;html=1;shape=mxgraph.salesforce.bots;fontSize=15;" parent="1" vertex="1">
                    <mxGeometry x="20" y="-320" width="52.63" height="50" as="geometry"/>
                </mxCell>
                <mxCell id="91" value="&lt;h1&gt;&lt;font style=&quot;color: rgb(255, 255, 255); font-size: 25px;&quot;&gt;HLD&lt;/font&gt;&lt;/h1&gt;" style="rounded=1;whiteSpace=wrap;html=1;strokeWidth=2;fillWeight=4;hachureGap=8;hachureAngle=45;fillColor=#1ba1e2;sketch=1;fontColor=#FFFFFF;" vertex="1" parent="1">
                    <mxGeometry x="610" y="-450" width="170" height="70" as="geometry"/>
                </mxCell>
            </root>
        </mxGraphModel>
    </diagram>
</mxfile>